# xmcd CD database file
#
# Track frame offsets:
#	182
#	10137
#	25750
#	39502
#	52265
#	68640
#	83642
#	99025
#	114535
#	129112
#	145502
#	159562
#	172055
#	186157
#	200710
#	213220
#	225955
#	245520
#	259490
#	277147
#	291037
#	305127
#	319457
#
# Disc length: 4433 seconds
#
# Revision: 2
# Processed by: cddbd v1.5.2PL0 Copyright (c) Steve Scherf et al.
# Submitted via: CDex 1.51
#
DISCID=49114f17
DTITLE=Benny Goodman - Vol- 054 - Benny Goodman, His Orchestra and His Combos - 1941/1955
DYEAR=1945
DGENRE=Jazz
TTITLE0=Let's Dance
TTITLE1=Jumpin' At The Woodside
TTITLE2=Get Happy
TTITLE3=Blue Lou
TTITLE4=Seven Come Eleven
TTITLE5=Memories of You
TTITLE6=Somebody Stole My Gal
TTITLE7=Rock Rimmon
TTITLE8=And The Angels Sing
TTITLE9=Air Mail Special
TTITLE10=Jersey Bounce
TTITLE11=Lullaby Of The Leaves
TTITLE12=What Can I Say After I Say I'm Sorry?
TTITLE13=East of the Sun and West of the Moon
TTITLE14=Temptation Rag
TTITLE15=You Brought A New Kind Of Love To Me
TTITLE16=Four or Five Times
TTITLE17=Big John's Special
TTITLE18=I got Rhythm
TTITLE19=Love Walked In
TTITLE20=Stealin' Apples
TTITLE21=Undercurrent Blues
TTITLE22=Clarinet A La King
EXTD=YEAR: 1945
EXTT0=
EXTT1=
EXTT2=
EXTT3=
EXTT4=
EXTT5=
EXTT6=
EXTT7=
EXTT8=
EXTT9=
EXTT10=
EXTT11=
EXTT12=
EXTT13=
EXTT14=
EXTT15=
EXTT16=
EXTT17=
EXTT18=
EXTT19=
EXTT20=
EXTT21=
EXTT22=
PLAYORDER=
